<svg width="14" height="15" viewBox="0 0 14 15" fill="none" xmlns="http://www.w3.org/2000/svg">
<path d="M5.03765 13.5V7.18267C5.03765 6.63038 5.48536 6.18267 6.03765 6.18267H8.07648C8.62876 6.18267 9.07648 6.63038 9.07648 7.18267V13.5M5.03765 13.5L5.0385 10.9537C5.03868 10.4013 4.59091 9.95333 4.0385 9.95333H2C1.44772 9.95333 1 10.401 1 10.9533V12.5C1 13.0523 1.44771 13.5 2 13.5H5.03765ZM5.03765 13.5H9.07648M9.07648 13.5V2.5C9.07648 1.94772 9.52419 1.5 10.0765 1.5H12C12.5523 1.5 13 1.94772 13 2.5V12.5C13 13.0523 12.5523 13.5 12 13.5H9.07648Z" stroke="#00ADFF" strokeWidth="1.5" strokeLinecap="round" strokeLinejoin="round"/>
</svg>
