<svg width="22" height="22" viewBox="0 0 22 22" fill="none" xmlns="http://www.w3.org/2000/svg">
<path d="M17 8.5999H19.4C20.0627 8.5999 20.6 9.13716 20.6 9.7999L20.6 18.5999C20.6 19.7045 19.7046 20.5999 18.6 20.5999L9.79999 20.5999C9.13725 20.5999 8.59999 20.0626 8.59999 19.3999V16.9999M11 1.3999L3.79999 1.3999C2.47451 1.3999 1.39999 2.47442 1.39999 3.7999L1.39999 10.9999C1.39999 12.3254 2.47451 13.3999 3.79999 13.3999L11 13.3999C12.3255 13.3999 13.4 12.3254 13.4 10.9999L13.4 3.7999C13.4 2.47442 12.3255 1.3999 11 1.3999Z" stroke="#636A8F" strokeWidth="2" strokeLinecap="round"/>
</svg>
