<svg width="16" height="11" viewBox="0 0 16 11" fill="none" xmlns="http://www.w3.org/2000/svg">
<path d="M3.42855 8.85252H2.81902C2.14576 8.85252 1.59998 8.30673 1.59998 7.63347V2.14776C1.59998 1.4745 2.14576 0.928711 2.81902 0.928711H8.30474C8.978 0.928711 9.52378 1.4745 9.52378 2.14776V7.63347C9.52378 8.30673 8.978 8.85252 8.30474 8.85252H7.69521M10.4381 8.85252H10.1333C9.79668 8.85252 9.52378 8.57963 9.52378 8.243V3.06204C9.52378 2.72541 9.79668 2.45252 10.1333 2.45252H11.6689C11.8541 2.45252 12.0292 2.53669 12.1449 2.68128L14.2664 5.33318C14.3529 5.44126 14.4 5.57554 14.4 5.71395V8.243C14.4 8.57963 14.1271 8.85252 13.7904 8.85252M7.08569 8.54776C7.08569 9.38933 6.40346 10.0716 5.56188 10.0716C4.7203 10.0716 4.03807 9.38933 4.03807 8.54776C4.03807 7.70618 4.7203 7.02395 5.56188 7.02395C6.40346 7.02395 7.08569 7.70618 7.08569 8.54776ZM13.4857 8.54776C13.4857 9.38933 12.8035 10.0716 11.9619 10.0716C11.1203 10.0716 10.4381 9.38933 10.4381 8.54776C10.4381 7.70618 11.1203 7.02395 11.9619 7.02395C12.8035 7.02395 13.4857 7.70618 13.4857 8.54776Z" stroke="#A0AEC0" strokeWidth="1.5" strokeLinecap="round"/>
</svg>
