<svg width="18" height="14" viewBox="0 0 18 14" fill="none" xmlns="http://www.w3.org/2000/svg">
<path d="M3.28571 11.1904H2.52381C1.68223 11.1904 1 10.5082 1 9.6666V2.80945C1 1.96788 1.68223 1.28564 2.52381 1.28564H9.38095C10.2225 1.28564 10.9048 1.96788 10.9048 2.80945V9.6666C10.9048 10.5082 10.2225 11.1904 9.38095 11.1904H8.61905M12.0476 11.1904H11.6667C11.2459 11.1904 10.9048 10.8493 10.9048 10.4285V3.95231C10.9048 3.53152 11.2459 3.19041 11.6667 3.19041H13.5862C13.8176 3.19041 14.0365 3.29562 14.1811 3.47635L16.833 6.79123C16.9411 6.92633 17 7.09418 17 7.26719V10.4285C17 10.8493 16.6589 11.1904 16.2381 11.1904M7.85714 10.8095C7.85714 11.8614 7.00435 12.7142 5.95238 12.7142C4.90041 12.7142 4.04762 11.8614 4.04762 10.8095C4.04762 9.75748 4.90041 8.90469 5.95238 8.90469C7.00435 8.90469 7.85714 9.75748 7.85714 10.8095ZM15.8571 10.8095C15.8571 11.8614 15.0043 12.7142 13.9524 12.7142C12.9004 12.7142 12.0476 11.8614 12.0476 10.8095C12.0476 9.75748 12.9004 8.90469 13.9524 8.90469C15.0043 8.90469 15.8571 9.75748 15.8571 10.8095Z" stroke="#16192C" strokeWidth="1.5" strokeLinecap="round"/>
</svg>
