<svg width="16" height="15" viewBox="0 0 16 15" fill="none" xmlns="http://www.w3.org/2000/svg">
<path d="M6.39998 3.89961L4.39998 3.89961M6.39998 6.29961L4.39998 6.29961M11.6 3.89961H9.59998M11.6 6.29961L9.59998 6.29961M6.39998 8.69961H4.39998M6.39998 11.0996H4.39998M1.59998 3.49961L1.59998 11.4996C1.59998 12.8251 2.67449 13.8996 3.99998 13.8996C5.32546 13.8996 10.6745 13.8996 12 13.8996C13.3255 13.8996 14.4 12.8251 14.4 11.4996V3.49961C14.4 2.17413 13.3255 1.09961 12 1.09961L3.99998 1.09961C2.67449 1.09961 1.59998 2.17413 1.59998 3.49961Z" stroke="#A0AEC0" strokeWidth="1.5" strokeLinecap="round" strokeLinejoin="round"/>
</svg>
