<svg width="24" height="24" viewBox="0 0 24 24" fill="none" xmlns="http://www.w3.org/2000/svg">
<g clipPath="url(#clip0_117_16804)">
<path d="M5.54676 14.8047L4.73983 17.8171L1.79054 17.8795C0.909128 16.2447 0.40918 14.3742 0.40918 12.3866C0.40918 10.4645 0.876619 8.652 1.70519 7.05603H1.70582L4.33152 7.53741L5.48174 10.1474C5.241 10.8492 5.10979 11.6026 5.10979 12.3866C5.10988 13.2374 5.264 14.0526 5.54676 14.8047Z" fill="#FBBB00"/>
<path d="M23.3884 10.2208C23.5216 10.922 23.591 11.6461 23.591 12.3862C23.591 13.216 23.5037 14.0255 23.3375 14.8063C22.7733 17.4632 21.2989 19.7833 19.2565 21.4252L19.2559 21.4245L15.9487 21.2558L15.4806 18.3338C16.8358 17.539 17.8949 16.2952 18.4528 14.8063H12.2549V10.2208H18.5433H23.3884Z" fill="#518EF8"/>
<path d="M19.2559 21.4249L19.2565 21.4255C17.2701 23.0221 14.7469 23.9774 12.0001 23.9774C7.58598 23.9774 3.74826 21.5102 1.79053 17.8794L5.54675 14.8047C6.5256 17.4171 9.04567 19.2767 12.0001 19.2767C13.27 19.2767 14.4597 18.9335 15.4805 18.3342L19.2559 21.4249Z" fill="#28B446"/>
<path d="M19.3987 3.46398L15.6437 6.5381C14.5872 5.87769 13.3382 5.49619 12.0002 5.49619C8.97893 5.49619 6.41173 7.44115 5.48192 10.1472L1.70596 7.05589H1.70532C3.63439 3.33661 7.52052 0.795532 12.0002 0.795532C14.8126 0.795532 17.3913 1.79733 19.3987 3.46398Z" fill="#F14336"/>
</g>
<defs>
<clipPath id="clip0_117_16804">
<rect width="23.1818" height="23.1818" fill="white" transform="translate(0.40918 0.795532)"/>
</clipPath>
</defs>
</svg>
