<svg width="16" height="13" viewBox="0 0 16 13" fill="none" xmlns="http://www.w3.org/2000/svg">
<path d="M12.8 7.625C13.6449 8.25626 14.4 9.84565 14.4 10.825C14.4 11.1301 14.1774 11.3774 13.9028 11.3774H13.6M10.4 5.03751C10.9465 4.72134 11.3143 4.1304 11.3143 3.45357C11.3143 2.77674 10.9465 2.1858 10.4 1.86963M2.09716 11.3774H10.8552C11.1298 11.3774 11.3524 11.1301 11.3524 10.825C11.3524 8.90722 9.75018 7.35259 6.47617 7.35259C3.20215 7.35259 1.59998 8.90722 1.59998 10.825C1.59998 11.1301 1.82257 11.3774 2.09716 11.3774ZM8.30474 3.45357C8.30474 4.46346 7.48606 5.28214 6.47617 5.28214C5.46627 5.28214 4.64759 4.46346 4.64759 3.45357C4.64759 2.44368 5.46627 1.625 6.47617 1.625C7.48606 1.625 8.30474 2.44368 8.30474 3.45357Z" stroke="#00ADFF" strokeWidth="1.33333" strokeLinecap="round"/>
</svg>
