<svg width="14" height="15" viewBox="0 0 14 15" fill="none" xmlns="http://www.w3.org/2000/svg">
<path d="M0.599976 1.89961C0.599976 1.45778 0.958148 1.09961 1.39998 1.09961H2.99998C3.4418 1.09961 3.79998 1.45778 3.79998 1.89961V3.49961C3.79998 3.94144 3.4418 4.29961 2.99998 4.29961H1.39998C0.958148 4.29961 0.599976 3.94144 0.599976 3.49961V1.89961Z" stroke="#A0AEC0"/>
<path d="M5.39998 1.89961C5.39998 1.45778 5.75815 1.09961 6.19998 1.09961H7.79998C8.2418 1.09961 8.59998 1.45778 8.59998 1.89961V3.49961C8.59998 3.94144 8.2418 4.29961 7.79998 4.29961H6.19998C5.75815 4.29961 5.39998 3.94144 5.39998 3.49961V1.89961Z" stroke="#A0AEC0"/>
<path d="M10.2 1.89961C10.2 1.45778 10.5581 1.09961 11 1.09961H12.6C13.0418 1.09961 13.4 1.45778 13.4 1.89961V3.49961C13.4 3.94144 13.0418 4.29961 12.6 4.29961H11C10.5581 4.29961 10.2 3.94144 10.2 3.49961V1.89961Z" stroke="#A0AEC0"/>
<path d="M0.599976 6.69961C0.599976 6.25778 0.958148 5.89961 1.39998 5.89961H2.99998C3.4418 5.89961 3.79998 6.25778 3.79998 6.69961V8.29961C3.79998 8.74144 3.4418 9.09961 2.99998 9.09961H1.39998C0.958148 9.09961 0.599976 8.74144 0.599976 8.29961V6.69961Z" stroke="#A0AEC0"/>
<path d="M5.39998 6.69961C5.39998 6.25778 5.75815 5.89961 6.19998 5.89961H7.79998C8.2418 5.89961 8.59998 6.25778 8.59998 6.69961V8.29961C8.59998 8.74144 8.2418 9.09961 7.79998 9.09961H6.19998C5.75815 9.09961 5.39998 8.74144 5.39998 8.29961V6.69961Z" stroke="#A0AEC0"/>
<path d="M10.2 6.69961C10.2 6.25778 10.5581 5.89961 11 5.89961H12.6C13.0418 5.89961 13.4 6.25778 13.4 6.69961V8.29961C13.4 8.74144 13.0418 9.09961 12.6 9.09961H11C10.5581 9.09961 10.2 8.74144 10.2 8.29961V6.69961Z" stroke="#A0AEC0"/>
<path d="M0.599976 11.4996C0.599976 11.0578 0.958148 10.6996 1.39998 10.6996H2.99998C3.4418 10.6996 3.79998 11.0578 3.79998 11.4996V13.0996C3.79998 13.5414 3.4418 13.8996 2.99998 13.8996H1.39998C0.958148 13.8996 0.599976 13.5414 0.599976 13.0996V11.4996Z" stroke="#A0AEC0"/>
<path d="M5.39998 11.4996C5.39998 11.0578 5.75815 10.6996 6.19998 10.6996H7.79998C8.2418 10.6996 8.59998 11.0578 8.59998 11.4996V13.0996C8.59998 13.5414 8.2418 13.8996 7.79998 13.8996H6.19998C5.75815 13.8996 5.39998 13.5414 5.39998 13.0996V11.4996Z" stroke="#A0AEC0"/>
<path d="M10.2 11.4996C10.2 11.0578 10.5581 10.6996 11 10.6996H12.6C13.0418 10.6996 13.4 11.0578 13.4 11.4996V13.0996C13.4 13.5414 13.0418 13.8996 12.6 13.8996H11C10.5581 13.8996 10.2 13.5414 10.2 13.0996V11.4996Z" stroke="#A0AEC0"/>
</svg>
