<svg width="16" height="21" viewBox="0 0 16 21" fill="none" xmlns="http://www.w3.org/2000/svg">
<path d="M11.2512 19.6114L7.77289 16.3651H2.5555C1.63503 16.3651 0.888835 15.6686 0.888835 14.8095V8.72255C0.888835 7.86344 1.63503 7.16699 2.5555 7.16699H12.5555C13.476 7.16699 14.2222 7.86344 14.2222 8.72255V14.8095C14.2222 15.6686 13.476 16.3651 12.5555 16.3651H11.2512V19.6114Z" stroke="#A0AEC0" strokeWidth="1.5" strokeLinecap="round" strokeLinejoin="round"/>
<path d="M6.22221 11.1663C6.22221 10.6725 5.77776 9.83301 4.88888 9.83301C3.99999 9.83301 3.55554 10.6725 3.55554 11.1663" stroke="#A0AEC0" strokeMiterlimit="10" strokeLinecap="round"/>
<path d="M11.5556 11.1663C11.5556 10.6725 11.1111 9.83301 10.2222 9.83301C9.33336 9.83301 8.88892 10.6725 8.88892 11.1663" stroke="#A0AEC0" strokeMiterlimit="10" strokeLinecap="round"/>
<path d="M8.82771 4.53418H6.95373C6.60434 4.53418 6.31848 4.82004 6.31848 5.16943V6.53521C6.31848 6.88459 6.60434 7.17045 6.95373 7.17045H8.82771C9.17709 7.17045 9.46296 6.88459 9.46296 6.53521V5.16943C9.46296 4.82004 9.17709 4.53418 8.82771 4.53418Z" fill="#A0AEC0"/>
<path d="M7.87432 4.53422C7.87432 4.53422 7.84256 1.89794 6.0321 1.2627" stroke="#A0AEC0" strokeWidth="0.714653" strokeMiterlimit="10"/>
<path d="M5.36557 1.89788C5.87428 1.89788 6.28667 1.48549 6.28667 0.976772C6.28667 0.468058 5.87428 0.0556641 5.36557 0.0556641C4.85685 0.0556641 4.44446 0.468058 4.44446 0.976772C4.44446 1.48549 4.85685 1.89788 5.36557 1.89788Z" fill="#A0AEC0"/>
</svg>
