<svg width="29" height="29" viewBox="0 0 29 29" fill="none" xmlns="http://www.w3.org/2000/svg">
<path d="M27.0882 11.8688C27.4177 10.8925 27.532 9.85813 27.4234 8.83479C27.3149 7.81145 26.9861 6.8228 26.459 5.93501C25.6776 4.59217 24.484 3.529 23.0505 2.8989C21.617 2.2688 20.0177 2.10436 18.4833 2.42931C17.7912 1.65973 16.9405 1.0449 15.9881 0.625966C15.0357 0.207033 14.0036 -0.00633563 12.9609 0.000143245C11.3921 -0.00359101 9.86266 0.484327 8.59305 1.39355C7.32343 2.30278 6.37925 3.58633 5.89663 5.05916C4.87466 5.26557 3.90917 5.68501 3.06479 6.28941C2.22041 6.8938 1.51663 7.6692 1.00056 8.5637C0.212926 9.90281 -0.123283 11.4542 0.0404211 12.994C0.204125 14.5338 0.859282 15.9825 1.9114 17.1312C1.58197 18.1075 1.46769 19.1419 1.57621 20.1652C1.68473 21.1885 2.01354 22.1772 2.54064 23.065C3.32212 24.4078 4.5157 25.4709 5.94919 26.1009C7.38268 26.731 8.98197 26.8955 10.5163 26.5707C11.2084 27.3403 12.0591 27.9551 13.0115 28.374C13.9639 28.793 14.996 29.0063 16.0387 28.9999C17.6083 29.0039 19.1385 28.5158 20.4086 27.606C21.6788 26.6962 22.6231 25.4117 23.1053 23.938C24.1273 23.7316 25.0928 23.3121 25.9372 22.7077C26.7816 22.1033 27.4853 21.3279 28.0014 20.4334C28.788 19.0944 29.1235 17.5435 28.9593 16.0043C28.7952 14.465 28.14 13.017 27.0882 11.8688ZM16.0411 27.1041C14.7527 27.1059 13.5047 26.6607 12.5153 25.8463C12.5599 25.8223 12.6382 25.78 12.6892 25.7492L18.5412 22.4138C18.6881 22.3313 18.8101 22.2118 18.8946 22.0674C18.9791 21.923 19.0232 21.759 19.0222 21.5923V13.4518L21.4957 14.8611C21.5087 14.8674 21.5199 14.8769 21.5283 14.8885C21.5367 14.9002 21.542 14.9137 21.5438 14.9279V21.6695C21.542 23.1094 20.9618 24.4898 19.9304 25.5085C18.899 26.5271 17.5004 27.1009 16.0411 27.1041ZM4.20705 22.1171C3.56169 21.0169 3.3291 19.7277 3.54999 18.4753C3.59345 18.5011 3.66935 18.5468 3.72382 18.5777L9.57588 21.913C9.72171 21.9971 9.88761 22.0415 10.0565 22.0415C10.2255 22.0415 10.3914 21.9971 10.5372 21.913L17.682 17.8425V20.661C17.6828 20.6754 17.68 20.6897 17.6738 20.7028C17.6677 20.7159 17.6583 20.7272 17.6467 20.7359L11.7308 24.106C10.4654 24.8251 8.96262 25.0195 7.55212 24.6467C6.14162 24.2738 4.93861 23.3641 4.20705 22.1171ZM2.66754 9.51156C3.31011 8.40988 4.32501 7.56635 5.53449 7.1287C5.53449 7.17844 5.5316 7.26653 5.5316 7.32764V13.9983C5.53056 14.1649 5.57451 14.3288 5.65893 14.4731C5.74335 14.6174 5.8652 14.7369 6.01194 14.8193L13.1567 18.8893L10.6832 20.2985C10.671 20.3064 10.657 20.3112 10.6424 20.3125C10.6279 20.3138 10.6132 20.3116 10.5997 20.3059L4.68333 16.9329C3.42016 16.2111 2.49861 15.0245 2.12074 13.6333C1.74286 12.2422 1.9395 10.7599 2.66754 9.51156ZM22.9901 14.1778L15.8452 10.1073L18.3188 8.69862C18.331 8.69068 18.345 8.68585 18.3595 8.68456C18.3741 8.68327 18.3887 8.68556 18.4022 8.69122L24.3186 12.0614C25.225 12.578 25.9635 13.3387 26.4476 14.2544C26.9317 15.1702 27.1414 16.203 27.0521 17.2321C26.9628 18.2612 26.5782 19.2438 25.9434 20.065C25.3085 20.8862 24.4497 21.512 23.4674 21.869V14.9988C23.4688 14.8325 23.4253 14.6688 23.3414 14.5245C23.2575 14.3802 23.1363 14.2606 22.9901 14.1778ZM25.4519 10.5218C25.4085 10.4955 25.3326 10.4503 25.2782 10.4195L19.426 7.08412C19.2801 7.00013 19.1143 6.95587 18.9454 6.95587C18.7765 6.95587 18.6106 7.00013 18.4648 7.08412L11.32 11.1547V8.33619C11.3192 8.3218 11.322 8.30744 11.3281 8.29437C11.3343 8.28131 11.3436 8.26995 11.3553 8.2613L17.2712 4.89393C18.1775 4.3783 19.2139 4.12799 20.2591 4.17227C21.3043 4.21654 22.3151 4.55358 23.1733 5.14396C24.0314 5.73433 24.7015 6.55362 25.105 7.50599C25.5085 8.45835 25.6289 9.50441 25.4519 10.5218ZM9.97518 15.5454L7.50102 14.1361C7.48803 14.1298 7.47685 14.1203 7.46846 14.1086C7.46007 14.0969 7.45475 14.0834 7.45297 14.0692V7.32764C7.45366 6.29511 7.75241 5.28412 8.31427 4.41303C8.87612 3.54194 9.67783 2.84678 10.6255 2.40892C11.5733 1.97106 12.6278 1.80862 13.6657 1.94062C14.7035 2.07261 15.6818 2.49357 16.4861 3.15423C16.4415 3.17825 16.3638 3.22056 16.3122 3.25143L10.4601 6.58675C10.3133 6.66909 10.1913 6.78855 10.1068 6.93284C10.0223 7.07713 9.97824 7.24103 9.97922 7.40768L9.97518 15.5454ZM11.3188 12.6868L14.501 10.8734L17.6831 12.6857V16.3114L14.501 18.1238L11.3188 16.3114L11.3188 12.6868Z" fill="black"/>
</svg>