<svg width="16" height="11" viewBox="0 0 16 11" fill="none" xmlns="http://www.w3.org/2000/svg">
<path d="M3.99998 3.9V6.7M12 3.9V6.7M2.79998 9.5H13.2C13.8627 9.5 14.4 8.96274 14.4 8.3V2.7C14.4 2.03726 13.8627 1.5 13.2 1.5H2.79998C2.13723 1.5 1.59998 2.03726 1.59998 2.7V8.3C1.59998 8.96274 2.13723 9.5 2.79998 9.5ZM9.59997 5.5C9.59997 6.38366 8.88363 7.1 7.99997 7.1C7.11632 7.1 6.39997 6.38366 6.39997 5.5C6.39997 4.61634 7.11632 3.9 7.99997 3.9C8.88363 3.9 9.59997 4.61634 9.59997 5.5Z" stroke="#A0AEC0" strokeWidth="1.5" strokeLinecap="round" strokeLinejoin="round"/>
</svg>
