<svg width="16" height="17" viewBox="0 0 16 17" fill="none" xmlns="http://www.w3.org/2000/svg">
<path d="M14.8138 8.89922C14.8138 8.48501 14.478 8.14922 14.0638 8.14922C13.6496 8.14922 13.3138 8.48501 13.3138 8.89922H14.8138ZM7.66379 3.24922C8.07801 3.24922 8.41379 2.91343 8.41379 2.49922C8.41379 2.08501 8.07801 1.74922 7.66379 1.74922V3.24922ZM11.6138 8.89922C11.6138 8.48501 11.278 8.14922 10.8638 8.14922C10.4496 8.14922 10.1138 8.48501 10.1138 8.89922H11.6138ZM7.66379 6.44922C8.07801 6.44922 8.41379 6.11343 8.41379 5.69922C8.41379 5.28501 8.07801 4.94922 7.66379 4.94922V6.44922ZM11.0225 6.47213C11.3154 6.17923 11.3154 5.70436 11.0225 5.41147C10.7297 5.11857 10.2548 5.11857 9.96189 5.41147L11.0225 6.47213ZM7.13346 8.23989C6.84057 8.53279 6.84057 9.00766 7.13346 9.30055C7.42636 9.59345 7.90123 9.59345 8.19412 9.30055L7.13346 8.23989ZM14.7362 3.96196L15.2665 4.49229C15.4674 4.29142 15.5376 3.99429 15.4477 3.72479C15.3579 3.45529 15.1235 3.25967 14.8423 3.2195L14.7362 3.96196ZM12.1906 6.50754L11.9535 7.21906C12.223 7.30889 12.5201 7.23875 12.721 7.03788L12.1906 6.50754ZM9.92789 4.2448L9.39756 3.71447C9.19668 3.91535 9.12654 4.21247 9.21637 4.48197L9.92789 4.2448ZM12.4735 1.69922L13.2159 1.59315C13.1758 1.31193 12.9801 1.07754 12.7106 0.987706C12.4411 0.897873 12.144 0.968014 11.9431 1.16889L12.4735 1.69922ZM10.4936 5.94186L9.78206 6.17903C9.85671 6.40298 10.0324 6.57872 10.2564 6.65337L10.4936 5.94186ZM12.7563 3.67912L12.0139 3.78518C12.061 4.11517 12.3203 4.37444 12.6502 4.42158L12.7563 3.67912ZM13.3138 8.89922C13.3138 12.0196 10.7842 14.5492 7.66379 14.5492V16.0492C11.6126 16.0492 14.8138 12.8481 14.8138 8.89922H13.3138ZM7.66379 14.5492C4.54338 14.5492 2.01379 12.0196 2.01379 8.89922H0.513794C0.513794 12.8481 3.71496 16.0492 7.66379 16.0492V14.5492ZM2.01379 8.89922C2.01379 5.77881 4.54338 3.24922 7.66379 3.24922V1.74922C3.71496 1.74922 0.513794 4.95038 0.513794 8.89922H2.01379ZM10.1138 8.89922C10.1138 10.2523 9.01689 11.3492 7.66379 11.3492V12.8492C9.84532 12.8492 11.6138 11.0807 11.6138 8.89922H10.1138ZM7.66379 11.3492C6.3107 11.3492 5.21379 10.2523 5.21379 8.89922H3.71379C3.71379 11.0807 5.48227 12.8492 7.66379 12.8492V11.3492ZM5.21379 8.89922C5.21379 7.54612 6.3107 6.44922 7.66379 6.44922V4.94922C5.48227 4.94922 3.71379 6.71769 3.71379 8.89922H5.21379ZM9.96189 5.41147L7.13346 8.23989L8.19412 9.30055L11.0225 6.47213L9.96189 5.41147ZM14.2059 3.43163L11.6603 5.97722L12.721 7.03788L15.2665 4.49229L14.2059 3.43163ZM10.4582 4.77513L13.0038 2.22955L11.9431 1.16889L9.39756 3.71447L10.4582 4.77513ZM12.4278 5.79603L10.7307 5.23035L10.2564 6.65337L11.9535 7.21906L12.4278 5.79603ZM11.2051 5.70469L10.6394 4.00763L9.21637 4.48197L9.78206 6.17903L11.2051 5.70469ZM11.731 1.80528L12.0139 3.78518L13.4988 3.57305L13.2159 1.59315L11.731 1.80528ZM12.6502 4.42158L14.6301 4.70442L14.8423 3.2195L12.8624 2.93666L12.6502 4.42158Z" fill="#A0AEC0"/>
</svg>
